<svg width="104" height="24" viewBox="0 0 104 24" fill="none" xmlns="http://www.w3.org/2000/svg">
<g clip-path="url(#clip0_3_544)">
<path fill-rule="evenodd" clip-rule="evenodd" d="M13.2054 22V11.9988H15.9661L16.332 8.55237H13.2054L13.2101 6.82738C13.2101 5.92849 13.2955 5.44685 14.5865 5.44685H16.3124V2H13.5513C10.2347 2 9.06735 3.6719 9.06735 6.48352V8.55276H7V11.9992H9.06735V22H13.2054Z" fill="#808080"/>
<path fill-rule="evenodd" clip-rule="evenodd" d="M52.0004 1.99896C49.2844 1.99896 48.9435 2.01084 47.8768 2.05938C46.8121 2.10814 46.0854 2.27669 45.4495 2.524C44.7918 2.77943 44.2338 3.12112 43.678 3.67719C43.1217 4.23306 42.78 4.79101 42.5237 5.44855C42.2758 6.08463 42.107 6.81155 42.0591 7.87579C42.0114 8.94252 41.9989 9.28359 41.9989 11.9996C41.9989 14.7156 42.011 15.0554 42.0593 16.1221C42.1083 17.1868 42.2768 17.9135 42.5239 18.5494C42.7796 19.2071 43.1213 19.7651 43.6773 20.3209C44.233 20.8772 44.791 21.2197 45.4483 21.4752C46.0846 21.7225 46.8115 21.891 47.8759 21.9398C48.9427 21.9883 49.2833 22.0002 51.9991 22.0002C54.7153 22.0002 55.0551 21.9883 56.1219 21.9398C57.1865 21.891 57.9141 21.7225 58.5504 21.4752C59.2079 21.2197 59.765 20.8772 60.3207 20.3209C60.877 19.7651 61.2186 19.2071 61.4749 18.5496C61.7208 17.9135 61.8895 17.1866 61.9395 16.1223C61.9874 15.0556 61.9999 14.7156 61.9999 11.9996C61.9999 9.28359 61.9874 8.94273 61.9395 7.876C61.8895 6.81135 61.7208 6.08463 61.4749 5.44876C61.2186 4.79101 60.877 4.23306 60.3207 3.67719C59.7644 3.12091 59.2081 2.77922 58.5497 2.524C57.9122 2.27669 57.1851 2.10814 56.1204 2.05938C55.0537 2.01084 54.7141 1.99896 51.9972 1.99896H52.0004ZM51.1032 3.80116C51.2774 3.80089 51.4647 3.80097 51.6669 3.80106H51.667L52.0004 3.80116C54.6705 3.80116 54.987 3.81074 56.0414 3.85866C57.0165 3.90325 57.5457 4.06618 57.8982 4.20306C58.3649 4.38432 58.6977 4.601 59.0475 4.95102C59.3975 5.30104 59.6142 5.6344 59.7958 6.10109C59.9327 6.4532 60.0959 6.9824 60.1402 7.95746C60.1882 9.01169 60.1986 9.32838 60.1986 11.9973C60.1986 14.6662 60.1882 14.9829 60.1402 16.0371C60.0957 17.0122 59.9327 17.5414 59.7958 17.8935C59.6146 18.3602 59.3975 18.6925 59.0475 19.0423C58.6974 19.3923 58.3651 19.609 57.8982 19.7903C57.5461 19.9278 57.0165 20.0903 56.0414 20.1349C54.9872 20.1828 54.6705 20.1932 52.0004 20.1932C49.33 20.1932 49.0135 20.1828 47.9593 20.1349C46.9842 20.0899 46.455 19.927 46.1023 19.7901C45.6356 19.6088 45.3022 19.3921 44.9522 19.0421C44.6022 18.6921 44.3855 18.3596 44.2038 17.8927C44.0669 17.5406 43.9038 17.0114 43.8594 16.0363C43.8115 14.9821 43.8019 14.6654 43.8019 11.9948C43.8019 9.32421 43.8115 9.00919 43.8594 7.95496C43.904 6.9799 44.0669 6.4507 44.2038 6.09818C44.3851 5.63148 44.6022 5.29813 44.9522 4.94811C45.3022 4.59808 45.6356 4.3814 46.1023 4.19973C46.4548 4.06222 46.9842 3.89971 47.9593 3.85491C48.8818 3.81324 49.2394 3.80074 51.1032 3.79866V3.80116ZM57.3386 5.46168C56.6761 5.46168 56.1385 5.99859 56.1385 6.66134C56.1385 7.32388 56.6761 7.86141 57.3386 7.86141C58.0012 7.86141 58.5387 7.32388 58.5387 6.66134C58.5387 5.9988 58.0012 5.46126 57.3386 5.46126V5.46168ZM46.8646 11.9996C46.8646 9.16344 49.164 6.86396 52.0002 6.86385C54.8364 6.86385 57.1353 9.16337 57.1353 11.9996C57.1353 14.8358 54.8366 17.1343 52.0004 17.1343C49.1641 17.1343 46.8646 14.8358 46.8646 11.9996ZM55.3339 11.9996C55.3339 10.1584 53.8413 8.66605 52.0004 8.66605C50.1592 8.66605 48.6668 10.1584 48.6668 11.9996C48.6668 13.8405 50.1592 15.3331 52.0004 15.3331C53.8413 15.3331 55.3339 13.8405 55.3339 11.9996Z" fill="#808080"/>
<path fill-rule="evenodd" clip-rule="evenodd" d="M92.0419 21.9235C97.5323 21.9213 101.998 17.4547 102 11.9654C102.001 9.30464 100.966 6.80272 99.0861 4.92051C97.206 3.03821 94.7057 2.00115 92.0418 2C86.5529 2 82.0857 6.467 82.0835 11.9576C82.0827 13.7127 82.5413 15.4257 83.4127 16.936L82 22.0962L87.279 20.7114C88.7335 21.5048 90.3711 21.9229 92.0377 21.9235H92.0419ZM87.5236 18.9086L84.3909 19.7304L85.2271 16.6761L85.0303 16.3629C84.2018 15.0452 83.7642 13.5221 83.7648 11.9581C83.7666 7.39465 87.4796 3.68196 92.0451 3.68196C94.2559 3.68273 96.334 4.54474 97.8967 6.10924C99.4594 7.67374 100.319 9.75323 100.319 11.9648C100.317 16.5287 96.6038 20.2417 92.0419 20.2417H92.0385C90.5533 20.2411 89.0966 19.8421 87.8258 19.088L87.5236 18.9086ZM96.718 14.1094C96.8915 14.1933 97.0087 14.2499 97.0587 14.3334C97.1209 14.4372 97.1209 14.9354 96.9137 15.5167C96.7062 16.0979 95.7122 16.6283 95.2341 16.6998C94.8054 16.7639 94.263 16.7906 93.6669 16.6012C93.3055 16.4865 92.8421 16.3334 92.2484 16.077C89.9158 15.0698 88.3394 12.8089 88.0415 12.3817C88.0206 12.3517 88.006 12.3308 87.9978 12.3199L87.9958 12.3172C87.8642 12.1415 86.9818 10.9643 86.9818 9.74595C86.9818 8.59981 87.5448 7.99906 87.804 7.72254C87.8217 7.70359 87.8381 7.68617 87.8527 7.6702C88.0808 7.42109 88.3504 7.35881 88.5162 7.35881C88.6821 7.35881 88.8481 7.36035 88.9931 7.36763C89.011 7.36853 89.0296 7.36842 89.0488 7.3683C89.1938 7.36745 89.3746 7.36639 89.5529 7.79475C89.6216 7.95961 89.7219 8.20401 89.8278 8.46178C90.0419 8.98303 90.2785 9.55894 90.3201 9.64228C90.3823 9.76683 90.4238 9.91208 90.3408 10.0782C90.3284 10.1031 90.3169 10.1266 90.3059 10.1491C90.2436 10.2763 90.1978 10.3698 90.092 10.4933C90.0505 10.5418 90.0075 10.5941 89.9645 10.6465C89.8789 10.7507 89.7933 10.855 89.7188 10.9292C89.5942 11.0533 89.4646 11.1879 89.6097 11.437C89.7548 11.6861 90.2542 12.5009 90.9939 13.1607C91.7891 13.8699 92.4801 14.1697 92.8304 14.3216C92.8988 14.3513 92.9543 14.3754 92.9949 14.3957C93.2436 14.5203 93.3888 14.4994 93.5339 14.3334C93.6791 14.1674 94.1559 13.6068 94.3218 13.3578C94.4876 13.1088 94.6536 13.1503 94.8816 13.2333C95.1097 13.3164 96.3331 13.9182 96.5819 14.0428C96.6305 14.0671 96.6759 14.089 96.718 14.1094Z" fill="#808080"/>
</g>
<defs>
<clipPath id="clip0_3_544">
<rect width="104" height="24" fill="white"/>
</clipPath>
</defs>
</svg>
